<?xml version="1.0" encoding="utf-8"?><svg viewBox="0 0 21 23" xmlns="http://www.w3.org/2000/svg" xmlns:xlink="http://www.w3.org/1999/xlink"><style>:root>svg{display:none}:root>svg:target{display:block}</style><svg fill="none" viewBox="0 0 20 17" id="email" xmlns="http://www.w3.org/2000/svg"><g clip-path="url(#aclip0_7_852)" stroke="#14171C" stroke-width="1.5" stroke-miterlimit="10"><path d="M16.285 15.797H3.26a2.013 2.013 0 01-2.004-2.023V3.656c0-1.118.897-2.023 2.004-2.023h13.025c1.107 0 2.003.905 2.003 2.023v10.118a2.013 2.013 0 01-2.003 2.023z"/><path d="M1.256 3.656l8.516 5.059 8.516-5.059"/></g><defs><clipPath id="aclip0_7_852"><path fill="#fff" transform="translate(.42 .323)" d="M0 0h18.871v16.355H0z"/></clipPath></defs></svg><svg fill="none" viewBox="0 0 21 23" id="phone" xmlns="http://www.w3.org/2000/svg"><g clip-path="url(#bclip0_7_1486)"><path d="M19.117 16.815l-4.254-2.964c-.6-.414-1.476-.264-1.892.319l-1.105 1.589a1.17 1.17 0 00-.156.318c-.144.096-.399.21-.774.21-.617 0-1.673-.319-3.176-1.848-2.496-2.54-2.514-3.656-2.178-4.512a1.02 1.02 0 00.223-.136l1.526-1.175c.581-.446.697-1.316.254-1.94l-3.05-4.229c-.608-.846-1.355-.942-2.138-.259C1.923 2.607 1.135 3.604.813 4.2.63 4.528.55 4.87.581 5.21-.855 10.93 3.394 15.65 4.736 16.97c3.668 3.61 7.072 4.347 9.286 4.347 1.257 0 2.165-.227 2.568-.4.313.009.63-.073.935-.26.581-.35 1.534-1.179 1.923-1.675.322-.405.452-.783.394-1.156-.054-.378-.291-.71-.725-1.011zm-.367 1.602c-.322.41-1.199 1.18-1.686 1.47-.18.11-.349.155-.51.137a.452.452 0 00-.255.05c-.188.1-1.006.378-2.281.378-2.049 0-5.211-.715-8.665-4.115-1.252-1.238-5.25-5.69-3.887-10.976a.5.5 0 00.01-.182.85.85 0 01.116-.533c.272-.5.997-1.425 1.386-1.766.166-.146.318-.228.42-.228.144 0 .31.187.421.342l3.046 4.229c.157.223.126.523-.071.674l-1.53 1.179a.281.281 0 01-.116.05.441.441 0 00-.3.25c-.649 1.434-.492 2.891 2.286 5.713 1.377 1.403 2.661 2.117 3.806 2.117.77 0 1.248-.323 1.467-.514a.446.446 0 00.148-.278.306.306 0 01.045-.123l1.1-1.588c.139-.196.447-.242.658-.096l4.253 2.959c.21.146.331.282.345.396.018.105-.054.269-.206.455z" fill="#424242" stroke="#100F0F" stroke-width=".5"/></g><defs><clipPath id="bclip0_7_1486"><path fill="#fff" transform="translate(.057 .886)" d="M0 0h20.241v21.228H0z"/></clipPath></defs></svg></svg>