<svg width="21" height="23" viewBox="0 0 21 23" fill="none" xmlns="http://www.w3.org/2000/svg">
<g clip-path="url(#clip0_7_1486)">
<path d="M19.117 16.8149L14.8631 13.8512C14.2637 13.437 13.387 13.5872 12.971 14.1699L11.8662 15.7587C11.7991 15.8543 11.7454 15.9636 11.7096 16.0774C11.5665 16.173 11.3115 16.2868 10.9358 16.2868C10.3185 16.2868 9.26287 15.9681 7.75993 14.4385C5.26397 11.8983 5.24608 10.7829 5.58156 9.92707C5.66207 9.89065 5.73811 9.84513 5.80521 9.7905L7.33051 8.61598C7.91201 8.16984 8.02831 7.30033 7.58548 6.67665L4.53486 2.44747C3.92653 1.60073 3.17953 1.50513 2.39675 2.18799C1.92261 2.60681 1.13535 3.60378 0.813296 4.20015C0.629901 4.52792 0.549386 4.86935 0.580698 5.21078C-0.855148 10.9286 3.39424 15.6494 4.73615 16.9696C8.40404 20.5797 11.808 21.3172 14.0222 21.3172C15.2791 21.3172 16.1871 21.0896 16.5897 20.9166C16.9028 20.9257 17.2204 20.8437 17.5246 20.6571C18.1061 20.3065 19.0588 19.478 19.448 18.9818C19.77 18.5766 19.8998 18.1988 19.8416 17.8255C19.7879 17.4476 19.5509 17.1153 19.117 16.8149ZM18.7502 18.4173C18.4281 18.827 17.5514 19.5964 17.0639 19.8877C16.8849 19.997 16.715 20.0425 16.5539 20.0243C16.4645 20.0152 16.3795 20.0334 16.299 20.0744C16.1111 20.1745 15.2925 20.4522 14.0177 20.4522C11.9691 20.4522 8.80662 19.7375 5.35343 16.3369C4.10098 15.0986 0.102083 10.6463 1.46636 5.36101C1.47978 5.30183 1.48425 5.2381 1.47531 5.17891C1.45294 5.00592 1.48872 4.83293 1.5916 4.64628C1.86446 4.14552 2.58909 3.22138 2.97825 2.87995C3.14375 2.73427 3.29583 2.65233 3.39871 2.65233C3.54185 2.65233 3.70735 2.83898 3.81918 2.99376L6.86532 7.22294C7.02187 7.44601 6.99056 7.74647 6.79375 7.8967L5.26397 9.07577C5.23713 9.09853 5.20135 9.11219 5.14767 9.12585C5.01348 9.15771 4.90165 9.25331 4.84798 9.37623C4.19939 10.8102 4.35594 12.267 7.1337 15.0895C8.5114 16.4916 9.79516 17.2064 10.9403 17.2064C11.7096 17.2064 12.1882 16.8831 12.4074 16.6919C12.4879 16.6191 12.5416 16.5235 12.555 16.4142C12.564 16.3642 12.5774 16.3232 12.5998 16.2913L13.7001 14.7025C13.8388 14.5068 14.1474 14.4613 14.3577 14.6069L18.6115 17.566C18.8218 17.7117 18.9425 17.8482 18.9559 17.9621C18.9738 18.0668 18.9023 18.2306 18.7502 18.4173Z" fill="#424242" stroke="#100F0F" stroke-width="0.5"/>
</g>
<defs>
<clipPath id="clip0_7_1486">
<rect width="20.2405" height="21.2278" fill="white" transform="translate(0.057373 0.886002)"/>
</clipPath>
</defs>
</svg>
